<svg width="400" height="400" viewBox="0 0 400 400" fill="none" xmlns="http://www.w3.org/2000/svg">
<path d="M290.003 113.872L239.416 130.798L291.563 199.798L156.16 154.893L239.027 130.401L205.572 75C237.373 76.6541 268.368 90.6455 290.003 113.872Z" fill="#043434"/>
<path d="M155.378 244.516V316.831C114.411 302.318 83.8055 265.1 76.1229 222.425C75.5508 219.242 74.8697 215.809 75.0215 212.637L155.374 244.516H155.378Z" fill="#043434"/>
<path d="M155.378 154.896L75.0256 187.359C75.084 180.785 76.6486 173.772 78.3649 167.37C88.7991 128.521 117.837 96.9458 155.378 82.7715V154.892V154.896Z" fill="#043434"/>
<path d="M291.167 200.194L239.05 269.19L156.153 244.901L291.167 200.194Z" fill="#043434"/>
<path d="M205.183 324.996L239.035 269.96L290.381 285.925C272.108 304.816 248.037 318.302 221.988 322.941C216.43 323.929 210.768 324.272 205.179 325L205.183 324.996Z" fill="#043434"/>
<path d="M319.379 165.206C319.978 165.206 321.111 170.495 321.329 171.414C325.143 187.285 325.598 204.378 322.959 220.491C322.73 221.884 320.134 234.824 319.375 234.786L291.937 200.004L319.375 165.206H319.379Z" fill="#043434"/>
</svg>
